<svg xmlns="http://www.w3.org/2000/svg" viewBox="0 0 1200 630">
  <rect width="1200" height="630" fill="#0d1117"/>
  <rect x="0" y="0" width="1200" height="630" fill="url(#grad)" opacity="0.3"/>
  <defs>
    <radialGradient id="grad" cx="50%" cy="50%">
      <stop offset="0%" stop-color="#161b22"/>
      <stop offset="100%" stop-color="#0d1117"/>
    </radialGradient>
  </defs>

  <!-- Network nodes background decoration -->
  <circle cx="200" cy="200" r="40" stroke="#30363d" stroke-width="1" fill="none" opacity="0.5"/>
  <circle cx="400" cy="350" r="30" stroke="#30363d" stroke-width="1" fill="none" opacity="0.5"/>
  <circle cx="900" cy="180" r="35" stroke="#30363d" stroke-width="1" fill="none" opacity="0.5"/>
  <circle cx="1000" cy="400" r="25" stroke="#30363d" stroke-width="1" fill="none" opacity="0.5"/>
  <circle cx="150" cy="450" r="20" stroke="#30363d" stroke-width="1" fill="none" opacity="0.5"/>
  <line x1="200" y1="200" x2="400" y2="350" stroke="#30363d" stroke-width="0.5" opacity="0.3"/>
  <line x1="900" y1="180" x2="1000" y2="400" stroke="#30363d" stroke-width="0.5" opacity="0.3"/>
  <line x1="400" y1="350" x2="900" y2="180" stroke="#30363d" stroke-width="0.5" opacity="0.3"/>

  <!-- Logo -->
  <circle cx="600" cy="200" r="50" stroke="#58a6ff" stroke-width="2" fill="none"/>
  <path d="M570 200 Q600 160 630 200 Q600 240 570 200Z" stroke="#f85149" stroke-width="1.5" fill="rgba(248,81,73,0.15)"/>
  <circle cx="600" cy="200" r="5" fill="#58a6ff"/>

  <!-- Title -->
  <text x="600" y="320" text-anchor="middle" fill="#e6edf3" font-family="-apple-system, BlinkMacSystemFont, Segoe UI, Helvetica, Arial, sans-serif" font-size="52" font-weight="700">The Fragility Brief</text>

  <!-- Subtitle -->
  <text x="600" y="375" text-anchor="middle" fill="#8b949e" font-family="-apple-system, BlinkMacSystemFont, Segoe UI, Helvetica, Arial, sans-serif" font-size="24">Systems-level intelligence on interconnected global risks</text>

  <!-- Bottom bar -->
  <rect x="0" y="590" width="1200" height="40" fill="#161b22"/>
  <text x="600" y="616" text-anchor="middle" fill="#58a6ff" font-family="-apple-system, BlinkMacSystemFont, Segoe UI, Helvetica, Arial, sans-serif" font-size="16">20 Themes  |  12+ Sources  |  Multi-Model Analysis</text>
</svg>
